<svg width="24" height="24" viewBox="0 0 24 24" fill="none" xmlns="http://www.w3.org/2000/svg">
<path fill-rule="evenodd" clip-rule="evenodd" d="M8.781 6.969C8.85084 7.03867 8.90626 7.12143 8.94407 7.21255C8.98188 7.30366 9.00134 7.40135 9.00134 7.5C9.00134 7.59865 8.98188 7.69633 8.94407 7.78745C8.90626 7.87857 8.85084 7.96133 8.781 8.031L4.8105 12L8.781 15.969C8.85073 16.0387 8.90604 16.1215 8.94378 16.2126C8.98152 16.3037 9.00095 16.4014 9.00095 16.5C9.00095 16.5986 8.98152 16.6963 8.94378 16.7874C8.90604 16.8785 8.85073 16.9613 8.781 17.031C8.71127 17.1007 8.62848 17.156 8.53737 17.1938C8.44626 17.2315 8.34861 17.2509 8.25 17.2509C8.15138 17.2509 8.05373 17.2315 7.96262 17.1938C7.87151 17.156 7.78873 17.1007 7.719 17.031L3.219 12.531C3.14915 12.4613 3.09374 12.3786 3.05593 12.2874C3.01812 12.1963 2.99866 12.0986 2.99866 12C2.99866 11.9013 3.01812 11.8037 3.05593 11.7125C3.09374 11.6214 3.14915 11.5387 3.219 11.469L7.719 6.969C7.78867 6.89915 7.87143 6.84374 7.96255 6.80593C8.05367 6.76812 8.15135 6.74866 8.25 6.74866C8.34865 6.74866 8.44633 6.76812 8.53745 6.80593C8.62857 6.84374 8.71133 6.89915 8.781 6.969V6.969Z" fill="#7BC5BC"/>
<path fill-rule="evenodd" clip-rule="evenodd" d="M3.75 12C3.75 11.8011 3.82902 11.6103 3.96967 11.4697C4.11032 11.329 4.30109 11.25 4.5 11.25H20.25C20.4489 11.25 20.6397 11.329 20.7803 11.4697C20.921 11.6103 21 11.8011 21 12C21 12.1989 20.921 12.3897 20.7803 12.5303C20.6397 12.671 20.4489 12.75 20.25 12.75H4.5C4.30109 12.75 4.11032 12.671 3.96967 12.5303C3.82902 12.3897 3.75 12.1989 3.75 12Z" fill="#7BC5BC"/>
</svg>
