<svg width="25" height="24" viewBox="0 0 25 24" fill="none" xmlns="http://www.w3.org/2000/svg">
<g clip-path="url(#clip0_365_1274)">
<path fill-rule="evenodd" clip-rule="evenodd" d="M21.25 0H3.25C2.45435 0 1.69129 0.316071 1.12868 0.87868C0.566071 1.44129 0.25 2.20435 0.25 3L0.25 21C0.25 21.7956 0.566071 22.5587 1.12868 23.1213C1.69129 23.6839 2.45435 24 3.25 24H21.25C22.0456 24 22.8087 23.6839 23.3713 23.1213C23.9339 22.5587 24.25 21.7956 24.25 21V3C24.25 2.20435 23.9339 1.44129 23.3713 0.87868C22.8087 0.316071 22.0456 0 21.25 0V0ZM1.75 5.7855C1.75 5.076 2.422 4.5 3.25 4.5H21.25C22.078 4.5 22.75 5.076 22.75 5.7855V21.2145C22.75 21.924 22.078 22.5 21.25 22.5H3.25C2.422 22.5 1.75 21.924 1.75 21.2145V5.7855Z" fill="#5D6664"/>
<path fill-rule="evenodd" clip-rule="evenodd" d="M10 10.5C10.3978 10.5 10.7794 10.342 11.0607 10.0607C11.342 9.77936 11.5 9.39782 11.5 9C11.5 8.60218 11.342 8.22064 11.0607 7.93934C10.7794 7.65804 10.3978 7.5 10 7.5C9.60218 7.5 9.22064 7.65804 8.93934 7.93934C8.65804 8.22064 8.5 8.60218 8.5 9C8.5 9.39782 8.65804 9.77936 8.93934 10.0607C9.22064 10.342 9.60218 10.5 10 10.5ZM14.5 10.5C14.8978 10.5 15.2794 10.342 15.5607 10.0607C15.842 9.77936 16 9.39782 16 9C16 8.60218 15.842 8.22064 15.5607 7.93934C15.2794 7.65804 14.8978 7.5 14.5 7.5C14.1022 7.5 13.7206 7.65804 13.4393 7.93934C13.158 8.22064 13 8.60218 13 9C13 9.39782 13.158 9.77936 13.4393 10.0607C13.7206 10.342 14.1022 10.5 14.5 10.5ZM19 10.5C19.3978 10.5 19.7794 10.342 20.0607 10.0607C20.342 9.77936 20.5 9.39782 20.5 9C20.5 8.60218 20.342 8.22064 20.0607 7.93934C19.7794 7.65804 19.3978 7.5 19 7.5C18.6022 7.5 18.2206 7.65804 17.9393 7.93934C17.658 8.22064 17.5 8.60218 17.5 9C17.5 9.39782 17.658 9.77936 17.9393 10.0607C18.2206 10.342 18.6022 10.5 19 10.5ZM5.5 15C5.89782 15 6.27936 14.842 6.56066 14.5607C6.84196 14.2794 7 13.8978 7 13.5C7 13.1022 6.84196 12.7206 6.56066 12.4393C6.27936 12.158 5.89782 12 5.5 12C5.10218 12 4.72064 12.158 4.43934 12.4393C4.15804 12.7206 4 13.1022 4 13.5C4 13.8978 4.15804 14.2794 4.43934 14.5607C4.72064 14.842 5.10218 15 5.5 15ZM10 15C10.3978 15 10.7794 14.842 11.0607 14.5607C11.342 14.2794 11.5 13.8978 11.5 13.5C11.5 13.1022 11.342 12.7206 11.0607 12.4393C10.7794 12.158 10.3978 12 10 12C9.60218 12 9.22064 12.158 8.93934 12.4393C8.65804 12.7206 8.5 13.1022 8.5 13.5C8.5 13.8978 8.65804 14.2794 8.93934 14.5607C9.22064 14.842 9.60218 15 10 15ZM14.5 15C14.8978 15 15.2794 14.842 15.5607 14.5607C15.842 14.2794 16 13.8978 16 13.5C16 13.1022 15.842 12.7206 15.5607 12.4393C15.2794 12.158 14.8978 12 14.5 12C14.1022 12 13.7206 12.158 13.4393 12.4393C13.158 12.7206 13 13.1022 13 13.5C13 13.8978 13.158 14.2794 13.4393 14.5607C13.7206 14.842 14.1022 15 14.5 15ZM19 15C19.3978 15 19.7794 14.842 20.0607 14.5607C20.342 14.2794 20.5 13.8978 20.5 13.5C20.5 13.1022 20.342 12.7206 20.0607 12.4393C19.7794 12.158 19.3978 12 19 12C18.6022 12 18.2206 12.158 17.9393 12.4393C17.658 12.7206 17.5 13.1022 17.5 13.5C17.5 13.8978 17.658 14.2794 17.9393 14.5607C18.2206 14.842 18.6022 15 19 15ZM5.5 19.5C5.89782 19.5 6.27936 19.342 6.56066 19.0607C6.84196 18.7794 7 18.3978 7 18C7 17.6022 6.84196 17.2206 6.56066 16.9393C6.27936 16.658 5.89782 16.5 5.5 16.5C5.10218 16.5 4.72064 16.658 4.43934 16.9393C4.15804 17.2206 4 17.6022 4 18C4 18.3978 4.15804 18.7794 4.43934 19.0607C4.72064 19.342 5.10218 19.5 5.5 19.5ZM10 19.5C10.3978 19.5 10.7794 19.342 11.0607 19.0607C11.342 18.7794 11.5 18.3978 11.5 18C11.5 17.6022 11.342 17.2206 11.0607 16.9393C10.7794 16.658 10.3978 16.5 10 16.5C9.60218 16.5 9.22064 16.658 8.93934 16.9393C8.65804 17.2206 8.5 17.6022 8.5 18C8.5 18.3978 8.65804 18.7794 8.93934 19.0607C9.22064 19.342 9.60218 19.5 10 19.5ZM14.5 19.5C14.8978 19.5 15.2794 19.342 15.5607 19.0607C15.842 18.7794 16 18.3978 16 18C16 17.6022 15.842 17.2206 15.5607 16.9393C15.2794 16.658 14.8978 16.5 14.5 16.5C14.1022 16.5 13.7206 16.658 13.4393 16.9393C13.158 17.2206 13 17.6022 13 18C13 18.3978 13.158 18.7794 13.4393 19.0607C13.7206 19.342 14.1022 19.5 14.5 19.5Z" fill="#5D6664"/>
</g>
<defs>
<clipPath id="clip0_365_1274">
<rect width="24" height="24" fill="white" transform="translate(0.25)"/>
</clipPath>
</defs>
</svg>
