<svg width="25" height="24" viewBox="0 0 25 24" fill="none" xmlns="http://www.w3.org/2000/svg">
<g clip-path="url(#clip0_510_1658)">
<path d="M0.75 3C0.75 2.20435 1.06607 1.44129 1.62868 0.87868C2.19129 0.316071 2.95435 0 3.75 0L21.75 0C22.5456 0 23.3087 0.316071 23.8713 0.87868C24.4339 1.44129 24.75 2.20435 24.75 3H0.75Z" fill="#7BC5BC"/>
<path fill-rule="evenodd" clip-rule="evenodd" d="M0.75 4.5H24.75V21C24.75 21.7956 24.4339 22.5587 23.8713 23.1213C23.3087 23.6839 22.5456 24 21.75 24H3.75C2.95435 24 2.19129 23.6839 1.62868 23.1213C1.06607 22.5587 0.75 21.7956 0.75 21V4.5ZM10.5 10.5C10.8978 10.5 11.2794 10.342 11.5607 10.0607C11.842 9.77936 12 9.39782 12 9C12 8.60218 11.842 8.22064 11.5607 7.93934C11.2794 7.65804 10.8978 7.5 10.5 7.5C10.1022 7.5 9.72064 7.65804 9.43934 7.93934C9.15804 8.22064 9 8.60218 9 9C9 9.39782 9.15804 9.77936 9.43934 10.0607C9.72064 10.342 10.1022 10.5 10.5 10.5ZM16.5 9C16.5 9.39782 16.342 9.77936 16.0607 10.0607C15.7794 10.342 15.3978 10.5 15 10.5C14.6022 10.5 14.2206 10.342 13.9393 10.0607C13.658 9.77936 13.5 9.39782 13.5 9C13.5 8.60218 13.658 8.22064 13.9393 7.93934C14.2206 7.65804 14.6022 7.5 15 7.5C15.3978 7.5 15.7794 7.65804 16.0607 7.93934C16.342 8.22064 16.5 8.60218 16.5 9ZM19.5 10.5C19.8978 10.5 20.2794 10.342 20.5607 10.0607C20.842 9.77936 21 9.39782 21 9C21 8.60218 20.842 8.22064 20.5607 7.93934C20.2794 7.65804 19.8978 7.5 19.5 7.5C19.1022 7.5 18.7206 7.65804 18.4393 7.93934C18.158 8.22064 18 8.60218 18 9C18 9.39782 18.158 9.77936 18.4393 10.0607C18.7206 10.342 19.1022 10.5 19.5 10.5V10.5ZM7.5 13.5C7.5 13.8978 7.34196 14.2794 7.06066 14.5607C6.77936 14.842 6.39782 15 6 15C5.60218 15 5.22064 14.842 4.93934 14.5607C4.65804 14.2794 4.5 13.8978 4.5 13.5C4.5 13.1022 4.65804 12.7206 4.93934 12.4393C5.22064 12.158 5.60218 12 6 12C6.39782 12 6.77936 12.158 7.06066 12.4393C7.34196 12.7206 7.5 13.1022 7.5 13.5V13.5ZM10.5 15C10.8978 15 11.2794 14.842 11.5607 14.5607C11.842 14.2794 12 13.8978 12 13.5C12 13.1022 11.842 12.7206 11.5607 12.4393C11.2794 12.158 10.8978 12 10.5 12C10.1022 12 9.72064 12.158 9.43934 12.4393C9.15804 12.7206 9 13.1022 9 13.5C9 13.8978 9.15804 14.2794 9.43934 14.5607C9.72064 14.842 10.1022 15 10.5 15ZM16.5 13.5C16.5 13.8978 16.342 14.2794 16.0607 14.5607C15.7794 14.842 15.3978 15 15 15C14.6022 15 14.2206 14.842 13.9393 14.5607C13.658 14.2794 13.5 13.8978 13.5 13.5C13.5 13.1022 13.658 12.7206 13.9393 12.4393C14.2206 12.158 14.6022 12 15 12C15.3978 12 15.7794 12.158 16.0607 12.4393C16.342 12.7206 16.5 13.1022 16.5 13.5V13.5ZM19.5 15C19.8978 15 20.2794 14.842 20.5607 14.5607C20.842 14.2794 21 13.8978 21 13.5C21 13.1022 20.842 12.7206 20.5607 12.4393C20.2794 12.158 19.8978 12 19.5 12C19.1022 12 18.7206 12.158 18.4393 12.4393C18.158 12.7206 18 13.1022 18 13.5C18 13.8978 18.158 14.2794 18.4393 14.5607C18.7206 14.842 19.1022 15 19.5 15V15ZM7.5 18C7.5 18.3978 7.34196 18.7794 7.06066 19.0607C6.77936 19.342 6.39782 19.5 6 19.5C5.60218 19.5 5.22064 19.342 4.93934 19.0607C4.65804 18.7794 4.5 18.3978 4.5 18C4.5 17.6022 4.65804 17.2206 4.93934 16.9393C5.22064 16.658 5.60218 16.5 6 16.5C6.39782 16.5 6.77936 16.658 7.06066 16.9393C7.34196 17.2206 7.5 17.6022 7.5 18V18ZM10.5 19.5C10.8978 19.5 11.2794 19.342 11.5607 19.0607C11.842 18.7794 12 18.3978 12 18C12 17.6022 11.842 17.2206 11.5607 16.9393C11.2794 16.658 10.8978 16.5 10.5 16.5C10.1022 16.5 9.72064 16.658 9.43934 16.9393C9.15804 17.2206 9 17.6022 9 18C9 18.3978 9.15804 18.7794 9.43934 19.0607C9.72064 19.342 10.1022 19.5 10.5 19.5ZM16.5 18C16.5 18.3978 16.342 18.7794 16.0607 19.0607C15.7794 19.342 15.3978 19.5 15 19.5C14.6022 19.5 14.2206 19.342 13.9393 19.0607C13.658 18.7794 13.5 18.3978 13.5 18C13.5 17.6022 13.658 17.2206 13.9393 16.9393C14.2206 16.658 14.6022 16.5 15 16.5C15.3978 16.5 15.7794 16.658 16.0607 16.9393C16.342 17.2206 16.5 17.6022 16.5 18V18Z" fill="#7BC5BC"/>
</g>
<defs>
<clipPath id="clip0_510_1658">
<rect width="24" height="24" fill="white" transform="translate(0.75)"/>
</clipPath>
</defs>
</svg>
