<svg width="25" height="24" viewBox="0 0 25 24" fill="none" xmlns="http://www.w3.org/2000/svg">
<g clip-path="url(#clip0_510_1651)">
<path fill-rule="evenodd" clip-rule="evenodd" d="M24.5 12C24.5 17.799 19.127 22.5 12.5 22.5C11.3115 22.5016 10.1279 22.3473 8.9795 22.041C8.1035 22.485 6.092 23.337 2.708 23.892C2.408 23.94 2.18 23.628 2.2985 23.349C2.8295 22.095 3.3095 20.424 3.4535 18.9C1.616 17.055 0.5 14.64 0.5 12C0.5 6.201 5.873 1.5 12.5 1.5C19.127 1.5 24.5 6.201 24.5 12ZM8 12C8 12.3978 7.84196 12.7794 7.56066 13.0607C7.27936 13.342 6.89782 13.5 6.5 13.5C6.10218 13.5 5.72064 13.342 5.43934 13.0607C5.15804 12.7794 5 12.3978 5 12C5 11.6022 5.15804 11.2206 5.43934 10.9393C5.72064 10.658 6.10218 10.5 6.5 10.5C6.89782 10.5 7.27936 10.658 7.56066 10.9393C7.84196 11.2206 8 11.6022 8 12V12ZM14 12C14 12.3978 13.842 12.7794 13.5607 13.0607C13.2794 13.342 12.8978 13.5 12.5 13.5C12.1022 13.5 11.7206 13.342 11.4393 13.0607C11.158 12.7794 11 12.3978 11 12C11 11.6022 11.158 11.2206 11.4393 10.9393C11.7206 10.658 12.1022 10.5 12.5 10.5C12.8978 10.5 13.2794 10.658 13.5607 10.9393C13.842 11.2206 14 11.6022 14 12ZM18.5 13.5C18.8978 13.5 19.2794 13.342 19.5607 13.0607C19.842 12.7794 20 12.3978 20 12C20 11.6022 19.842 11.2206 19.5607 10.9393C19.2794 10.658 18.8978 10.5 18.5 10.5C18.1022 10.5 17.7206 10.658 17.4393 10.9393C17.158 11.2206 17 11.6022 17 12C17 12.3978 17.158 12.7794 17.4393 13.0607C17.7206 13.342 18.1022 13.5 18.5 13.5V13.5Z" fill="#7BC5BC"/>
</g>
<defs>
<clipPath id="clip0_510_1651">
<rect width="24" height="24" fill="white" transform="translate(0.5)"/>
</clipPath>
</defs>
</svg>
