<svg width="24" height="24" viewBox="0 0 24 24" fill="none" xmlns="http://www.w3.org/2000/svg">
<path fill-rule="evenodd" clip-rule="evenodd" d="M9 22.5H1.5L1.5 1.5H9L9 22.5ZM22.5 22.5H15L15 15L22.5 15V22.5ZM22.5 9L15 9L15 1.5H22.5V9ZM0 22.5C0 22.8978 0.158035 23.2794 0.43934 23.5607C0.720644 23.842 1.10218 24 1.5 24H9C9.39782 24 9.77936 23.842 10.0607 23.5607C10.342 23.2794 10.5 22.8978 10.5 22.5L10.5 1.5C10.5 1.10218 10.342 0.720645 10.0607 0.43934C9.77936 0.158036 9.39782 0 9 0H1.5C1.10218 0 0.720644 0.158036 0.43934 0.43934C0.158035 0.720645 0 1.10218 0 1.5L0 22.5ZM13.5 22.5C13.5 22.8978 13.658 23.2794 13.9393 23.5607C14.2206 23.842 14.6022 24 15 24H22.5C22.8978 24 23.2794 23.842 23.5607 23.5607C23.842 23.2794 24 22.8978 24 22.5V15C24 14.6022 23.842 14.2206 23.5607 13.9393C23.2794 13.658 22.8978 13.5 22.5 13.5L15 13.5C14.6022 13.5 14.2206 13.658 13.9393 13.9393C13.658 14.2206 13.5 14.6022 13.5 15L13.5 22.5ZM15 10.5C14.6022 10.5 14.2206 10.342 13.9393 10.0607C13.658 9.77936 13.5 9.39782 13.5 9L13.5 1.5C13.5 1.10218 13.658 0.720645 13.9393 0.43934C14.2206 0.158036 14.6022 0 15 0H22.5C22.8978 0 23.2794 0.158036 23.5607 0.43934C23.842 0.720645 24 1.10218 24 1.5V9C24 9.39782 23.842 9.77936 23.5607 10.0607C23.2794 10.342 22.8978 10.5 22.5 10.5L15 10.5Z" fill="#5D6664"/>
</svg>
