<svg width="24" height="24" viewBox="0 0 24 24" fill="none" xmlns="http://www.w3.org/2000/svg">
<path fill-rule="evenodd" clip-rule="evenodd" d="M11.469 1.71912C11.5387 1.64928 11.6214 1.59386 11.7126 1.55605C11.8037 1.51824 11.9014 1.49878 12 1.49878C12.0987 1.49878 12.1963 1.51824 12.2875 1.55605C12.3786 1.59386 12.4613 1.64928 12.531 1.71912L21.531 10.7191C21.6006 10.7889 21.6558 10.8717 21.6934 10.9628C21.7309 11.0539 21.7502 11.1516 21.75 11.2501V21.7501C21.75 21.949 21.671 22.1398 21.5303 22.2805C21.3897 22.4211 21.1989 22.5001 21 22.5001H14.25C14.0511 22.5001 13.8603 22.4211 13.7197 22.2805C13.579 22.1398 13.5 21.949 13.5 21.7501V15.7501H10.5V21.7501C10.5 21.949 10.421 22.1398 10.2803 22.2805C10.1397 22.4211 9.94891 22.5001 9.75 22.5001H3C2.80109 22.5001 2.61032 22.4211 2.46967 22.2805C2.32902 22.1398 2.25 21.949 2.25 21.7501V11.2501C2.24983 11.1516 2.26908 11.0539 2.30665 10.9628C2.34423 10.8717 2.3994 10.7889 2.469 10.7191L11.469 1.71912ZM3.75 11.5606V21.0001H9V15.0001C9 14.8012 9.07902 14.6104 9.21967 14.4698C9.36032 14.3291 9.55109 14.2501 9.75 14.2501H14.25C14.4489 14.2501 14.6397 14.3291 14.7803 14.4698C14.921 14.6104 15 14.8012 15 15.0001V21.0001H20.25V11.5606L12 3.31062L3.75 11.5606Z" fill="#5D6664"/>
<path fill-rule="evenodd" clip-rule="evenodd" d="M19.5 3.75V9L16.5 6V3.75C16.5 3.55109 16.579 3.36032 16.7197 3.21967C16.8603 3.07902 17.0511 3 17.25 3H18.75C18.9489 3 19.1397 3.07902 19.2803 3.21967C19.421 3.36032 19.5 3.55109 19.5 3.75Z" fill="#5D6664"/>
</svg>
