<svg width="16" height="16" viewBox="0 0 16 16" fill="none" xmlns="http://www.w3.org/2000/svg">
<circle cx="8" cy="8" r="7.5" fill="white" stroke="#7BC5BC"/>
<path d="M7.62702 11.7267C7.51906 11.7267 7.41109 11.6863 7.33012 11.619C7.19517 11.5114 7.12769 11.3364 7.16818 11.1614L7.82945 7.79657L7.46507 7.99847C7.23565 8.1196 6.95225 8.0523 6.8173 7.82349C6.69584 7.59468 6.76332 7.31204 6.99274 7.17744L8.2478 6.46409C8.40974 6.36988 8.61217 6.38334 8.76062 6.49101C8.90907 6.59869 8.97655 6.78712 8.94956 6.96209L8.2613 10.4615L8.8281 10.2193C9.07101 10.1116 9.34092 10.2193 9.44888 10.4615C9.55684 10.7038 9.44888 10.973 9.20597 11.0807L7.81595 11.6863C7.76197 11.7133 7.69449 11.7267 7.62702 11.7267ZM8.96305 5.29313C9.08451 5.17199 9.16548 4.99702 9.16548 4.82205C9.16548 4.64708 9.098 4.4721 8.96305 4.35097C8.84159 4.22983 8.66616 4.14908 8.49072 4.14908C8.31528 4.14908 8.13984 4.21638 8.01838 4.35097C7.89692 4.4721 7.81595 4.64708 7.81595 4.82205C7.81595 4.99702 7.88343 5.17199 8.01838 5.29313C8.13984 5.41426 8.31528 5.49502 8.49072 5.49502C8.66616 5.49502 8.84159 5.42772 8.96305 5.29313Z" fill="#7BC5BC"/>
</svg>
