<svg width="16" height="16" viewBox="0 0 16 16" fill="none" xmlns="http://www.w3.org/2000/svg">
<g clip-path="url(#clip0_647_1730)">
<path fill-rule="evenodd" clip-rule="evenodd" d="M14 0H2C1.46957 0 0.960859 0.210714 0.585786 0.585786C0.210714 0.960859 0 1.46957 0 2L0 14C0 14.5304 0.210714 15.0391 0.585786 15.4142C0.960859 15.7893 1.46957 16 2 16H14C14.5304 16 15.0391 15.7893 15.4142 15.4142C15.7893 15.0391 16 14.5304 16 14V2C16 1.46957 15.7893 0.960859 15.4142 0.585786C15.0391 0.210714 14.5304 0 14 0V0ZM1 3.857C1 3.384 1.448 3 2 3H14C14.552 3 15 3.384 15 3.857V14.143C15 14.616 14.552 15 14 15H2C1.448 15 1 14.616 1 14.143V3.857Z" fill="#7BC5BC"/>
<path d="M10.8908 9.11917H8.60142V11.4652H7.40009V9.11917H5.11075V8.03117H7.40009V5.68517H8.60142V8.03117H10.8908V9.11917Z" fill="#7BC5BC"/>
<rect x="1" y="3" width="14" height="12" rx="1" stroke="#7BC5BC" stroke-width="1.5"/>
</g>
<defs>
<clipPath id="clip0_647_1730">
<rect width="16" height="16" fill="white"/>
</clipPath>
</defs>
</svg>
