<svg width="24" height="24" viewBox="0 0 24 24" fill="none" xmlns="http://www.w3.org/2000/svg">
<path fill-rule="evenodd" clip-rule="evenodd" d="M10.0562 8.56552C11.1337 7.17388 12.8498 6.27276 14.7812 6.27276C18.0408 6.27276 20.6875 8.83923 20.6875 12C20.6875 15.1608 18.0408 17.7273 14.7812 17.7273C12.8505 17.7273 11.135 16.8269 10.0569 15.4358C9.83908 15.1551 9.42761 15.0985 9.13814 15.3097C8.84883 15.5203 8.79038 15.92 9.00762 16.2006C10.3254 17.9004 12.4221 19 14.7812 19C18.7652 19 22 15.8633 22 12C22 8.13665 18.7653 5 14.7812 5C12.4213 5 10.3239 6.10029 9.00612 7.80058C8.78888 8.08197 8.84733 8.48098 9.13679 8.69222C9.42683 8.90287 9.83831 8.8462 10.0562 8.56552ZM9.13417 13.7855H10.8582L11.8201 14.2526C12.0728 14.3747 12.3779 14.327 12.5782 14.133L13.2147 13.5156L13.8513 14.133C13.9747 14.2526 14.1414 14.3195 14.3153 14.3195H14.8659C15.0398 14.3195 15.2072 14.2526 15.3298 14.133L16.0964 13.3897C16.0964 13.3904 16.7743 13.7186 16.7743 13.7186C17.027 13.8409 17.3321 13.7932 17.5316 13.5997L19.1827 11.998C19.3218 11.8637 19.3914 11.6753 19.3718 11.4857C19.3527 11.296 19.2464 11.1243 19.0829 11.0186L17.4319 9.95142C17.3236 9.88139 17.1969 9.84446 17.0676 9.84446H8.87185C8.12961 8.56293 6.77243 7.70952 5.23417 7.70952C2.91106 7.70952 1 9.6561 1 12.0819C1 14.5077 2.91106 16.4542 5.23417 16.4542C6.97719 16.4542 8.48793 15.3578 9.13421 13.7853L9.13417 13.7855ZM5.23413 8.98225C6.86026 8.98225 8.15507 10.3835 8.15507 12.082C8.15507 13.7804 6.86029 15.1817 5.23413 15.1817C3.60725 15.1817 2.31247 13.7804 2.31247 12.082C2.31247 10.3835 3.60725 8.98225 5.23413 8.98225ZM9.36446 11.1172C9.43213 11.4271 9.46743 11.7504 9.46743 12.082C9.46743 12.2277 9.46099 12.3715 9.44722 12.5128H11.013C11.1147 12.5128 11.2152 12.5364 11.3063 12.5803L11.9842 12.9085L12.7508 12.1659C13.0067 11.9172 13.4221 11.9172 13.6787 12.1659L14.5875 13.0468H14.5941L15.5025 12.1659C15.7026 11.9719 16.0077 11.9242 16.2604 12.0463L16.9376 12.3753L17.6884 11.6473L16.8688 11.1172L9.36446 11.1172Z" fill="#060F0E"/>
</svg>
