<svg width="222" height="40" viewBox="0 0 222 40" fill="none" xmlns="http://www.w3.org/2000/svg">
<g clip-path="url(#clip0_778_1921)">
<path d="M26.704 16.692C26.704 18.1788 25.5127 19.3844 24.0434 19.3844C22.5742 19.3844 21.3828 18.1788 21.3828 16.692C21.3828 15.2051 22.5742 13.9995 24.0434 13.9995C25.5127 13.9995 26.704 15.2051 26.704 16.692Z" fill="white"/>
<path d="M37.1883 16.6922C37.1883 15.2088 35.9935 14.0015 34.5285 14.0015C33.0618 14.0015 31.8662 15.2088 31.8662 16.6922C31.8662 18.1773 33.061 19.3864 34.5285 19.3864C35.9935 19.3864 37.1883 18.179 37.1883 16.6922Z" fill="white"/>
<path d="M47.6815 16.7562C47.6815 15.2728 46.4867 14.0654 45.0217 14.0654C43.555 14.0654 42.3594 15.2728 42.3594 16.7562C42.3594 18.2413 43.5541 19.4504 45.0217 19.4504C46.4867 19.4504 47.6815 18.243 47.6815 16.7562Z" fill="white"/>
<path d="M39.0501 10.8516L41.4507 5.60851H47.0863L62.3285 39.957H69.0009L51.3954 0H37.2885L34.1784 6.89412C33.9923 7.30689 33.4331 7.35935 33.1748 6.98785L33.1689 6.97925C31.6622 4.81479 29.6593 3.11727 27.161 1.88756C24.6627 0.658712 21.8219 0.0429969 18.6387 0.0429969C15.6612 0.0429969 13.0167 0.580458 10.7062 1.65366C8.39482 2.72772 6.44376 4.18274 4.85215 6.0187C3.26055 7.85553 2.05388 9.91594 1.23216 12.2017C0.410436 14.4882 0 16.8264 0 19.2162V20.359C0 23.0266 0.436779 25.5548 1.30949 27.9454C2.18219 30.3352 3.45684 32.4317 5.13428 34.2324C6.81086 36.034 8.84775 37.446 11.2441 38.4676C13.6396 39.4892 16.3784 40 19.4596 40C22.9844 40 26.0912 39.3507 28.779 38.0514C31.4659 36.752 33.6481 34.9255 35.3256 32.5693V27.8173C36.839 28.5069 38.7459 29.0384 40.8533 29.0384C43.2258 29.0384 45.8516 28.3625 48.4459 26.4792C49.7282 25.5505 50.0205 23.7437 49.1011 22.4478C48.1808 21.1502 46.398 20.8526 45.1174 21.7839C40.781 24.9296 36.9206 22.1847 36.4761 21.8467C35.9034 21.3987 35.2142 21.2052 34.5429 21.2499C33.8971 21.2 33.2326 21.3712 32.6649 21.7831C28.3286 24.9287 24.4681 22.1838 24.0237 21.8459C22.7856 20.8767 21.0028 21.0986 20.0315 22.3463C19.0568 23.6018 19.2727 25.4172 20.5125 26.4027C22.0369 27.6143 24.9525 29.0367 28.4008 29.0367C28.7858 29.0367 29.1775 29.0186 29.5743 28.9808V30.4289C28.739 31.2966 27.738 32.0533 26.5704 32.6983C24.5335 33.8239 22.1627 34.3872 19.4588 34.3872C17.5077 34.3872 15.7189 34.0673 14.0933 33.4258C12.4669 32.7851 11.0724 31.8495 9.9091 30.6198C8.74492 29.391 7.84672 27.8749 7.21365 26.0733C6.57973 24.2726 6.26361 22.1941 6.26361 19.8379C6.26361 17.725 6.55423 15.8108 7.13632 14.0961C7.71756 12.3814 8.55628 10.9092 9.65247 9.67946C10.7478 8.45061 12.0565 7.49694 13.5801 6.82189C15.1029 6.14683 16.7888 5.80888 18.6379 5.80888C20.4861 5.80888 22.189 6.14683 23.7467 6.82189C25.3043 7.4978 26.6044 8.47641 27.6488 9.75771C27.8825 10.0441 28.6235 10.8739 29.2208 11.6298C29.4188 11.8809 29.7834 11.905 30.0188 11.69C30.7742 11.002 31.6843 10.4835 32.6887 10.1954L32.6879 10.1971C33.1221 10.0725 33.5733 9.9899 34.0382 9.95636C34.0492 9.9555 34.0603 9.95464 34.0713 9.95378C34.1316 9.94948 34.192 9.9469 34.2532 9.94432C34.271 9.94346 34.288 9.9426 34.3058 9.9426C34.3781 9.94002 34.4511 9.9383 34.5242 9.9383C34.5778 9.9383 34.6313 9.94088 34.6848 9.94174C34.7069 9.9426 34.729 9.94346 34.7503 9.94432V9.94346C36.0402 9.98646 37.2392 10.3984 38.2479 11.0777C38.5292 11.2669 38.9082 11.1603 39.0501 10.8516Z" fill="white"/>
</g>
<path d="M95.9984 14.414C95.3506 13.0513 94.4124 12.0014 93.1838 11.2643C91.9552 10.5048 90.5256 10.125 88.8949 10.125C87.2642 10.125 85.7899 10.5048 84.4719 11.2643C83.1763 12.0014 82.1488 13.0737 81.3893 14.481C80.6521 15.8659 80.2835 17.4743 80.2835 19.306C80.2835 21.1377 80.6521 22.7461 81.3893 24.131C82.1488 25.516 83.1763 26.5882 84.4719 27.3477C85.7899 28.0849 87.2642 28.4535 88.8949 28.4535C91.1734 28.4535 93.0498 27.7721 94.5241 26.4095C95.9984 25.0469 96.8584 23.204 97.1041 20.8808H87.7891V18.4013H100.354V20.7468C100.176 22.6679 99.5725 24.4326 98.5449 26.0409C97.5174 27.6269 96.1659 28.889 94.4906 29.8272C92.8152 30.7431 90.95 31.201 88.8949 31.201C86.7281 31.201 84.7512 30.6984 82.9641 29.6932C81.1771 28.6657 79.7586 27.2472 78.7087 25.4378C77.6811 23.6284 77.1674 21.5845 77.1674 19.306C77.1674 17.0275 77.6811 14.9836 78.7087 13.1742C79.7586 11.3425 81.1771 9.92399 82.9641 8.91878C84.7512 7.89122 86.7281 7.37745 88.8949 7.37745C91.3744 7.37745 93.5635 7.99175 95.4623 9.22034C97.3834 10.4489 98.7795 12.1801 99.6507 14.414H95.9984ZM120.201 12.6381L109.144 39.6448H105.994L109.613 30.799L102.208 12.6381H105.592L111.355 27.5153L117.052 12.6381H120.201ZM145.348 12.303C146.777 12.303 148.051 12.6046 149.167 13.2077C150.284 13.7885 151.167 14.6708 151.815 15.8548C152.462 17.0387 152.786 18.4795 152.786 20.1772V31H149.771V20.6128C149.771 18.7811 149.313 17.3849 148.397 16.4244C147.503 15.4415 146.286 14.9501 144.745 14.9501C143.159 14.9501 141.896 15.4638 140.958 16.4914C140.02 17.4966 139.551 18.9598 139.551 20.8808V31H136.535V20.6128C136.535 18.7811 136.077 17.3849 135.161 16.4244C134.268 15.4415 133.051 14.9501 131.509 14.9501C129.923 14.9501 128.661 15.4638 127.723 16.4914C126.785 17.4966 126.316 18.9598 126.316 20.8808V31H123.266V12.6381H126.316V15.2851C126.919 14.3246 127.723 13.5874 128.728 13.0737C129.756 12.5599 130.884 12.303 132.112 12.303C133.654 12.303 135.016 12.6492 136.2 13.3417C137.384 14.0342 138.266 15.0506 138.847 16.3909C139.361 15.0953 140.21 14.0901 141.394 13.3752C142.578 12.6604 143.896 12.303 145.348 12.303ZM171.928 26.8451H163.149L161.742 31H155.744L164.255 7.47797H170.889L179.4 31H173.335L171.928 26.8451ZM170.454 22.4222L167.539 13.8108L164.657 22.4222H170.454ZM187.72 6.2047V31H181.99V6.2047H187.72ZM197.602 6.2047V31H191.872V6.2047H197.602ZM220.853 12.303L209.126 39.8794H202.961L207.25 30.3634L199.643 12.303H206.043L210.366 23.997L214.655 12.303H220.853Z" fill="white"/>
<defs>
<clipPath id="clip0_778_1921">
<rect width="69" height="40" fill="white"/>
</clipPath>
</defs>
</svg>
