<svg width="25" height="24" viewBox="0 0 25 24" fill="none" xmlns="http://www.w3.org/2000/svg">
<g clip-path="url(#clip0_200_1304)">
<path fill-rule="evenodd" clip-rule="evenodd" d="M24.2255 0.919479C24.3114 0.989882 24.3805 1.07848 24.428 1.17887C24.4755 1.27925 24.5001 1.38893 24.5 1.49998V21C24.4999 21.1733 24.4398 21.3412 24.3298 21.4752C24.2199 21.6092 24.067 21.701 23.897 21.735L16.397 23.235C16.3 23.2543 16.2 23.2543 16.103 23.235L8.75 21.765L1.397 23.235C1.28823 23.2567 1.176 23.2541 1.06838 23.2272C0.960764 23.2003 0.860444 23.15 0.774649 23.0797C0.688854 23.0094 0.61972 22.9209 0.572228 22.8207C0.524735 22.7204 0.500067 22.6109 0.5 22.5V2.99998C0.500105 2.82666 0.560234 2.65873 0.670165 2.52473C0.780096 2.39074 0.933042 2.29895 1.103 2.26498L8.603 0.764979C8.70004 0.745583 8.79996 0.745583 8.897 0.764979L16.25 2.23498L23.603 0.764979C23.7117 0.743103 23.824 0.745613 23.9316 0.772329C24.0392 0.799045 24.1396 0.849301 24.2255 0.919479V0.919479ZM15.5 3.61498L9.5 2.41498V20.385L15.5 21.585V3.61498ZM17 21.585L23 20.385V2.41498L17 3.61498V21.585ZM8 20.385V2.41498L2 3.61498V21.585L8 20.385Z" fill="#5D6664"/>
</g>
<defs>
<clipPath id="clip0_200_1304">
<rect width="24" height="24" fill="white" transform="translate(0.5)"/>
</clipPath>
</defs>
</svg>
