<svg width="25" height="24" viewBox="0 0 25 24" fill="none" xmlns="http://www.w3.org/2000/svg">
<path fill-rule="evenodd" clip-rule="evenodd" d="M20.5833 22C20.5833 22 22.25 22 22.25 20.3333C22.25 18.6667 20.5833 13.6667 12.25 13.6667C3.91667 13.6667 2.25 18.6667 2.25 20.3333C2.25 22 3.91667 22 3.91667 22H20.5833ZM3.925 20.4267V20.4233V20.4267ZM3.95333 20.3333H20.5467C20.5545 20.3324 20.5623 20.3313 20.57 20.33L20.5833 20.3267C20.5817 19.9167 20.3267 18.6833 19.1967 17.5533C18.11 16.4667 16.065 15.3333 12.25 15.3333C8.43333 15.3333 6.39 16.4667 5.30333 17.5533C4.17333 18.6833 3.92 19.9167 3.91667 20.3267C3.92886 20.329 3.94109 20.3312 3.95333 20.3333V20.3333ZM20.5767 20.4267V20.4233V20.4267ZM12.25 10.3333C13.1341 10.3333 13.9819 9.98214 14.607 9.35702C15.2321 8.7319 15.5833 7.88405 15.5833 7C15.5833 6.11594 15.2321 5.2681 14.607 4.64298C13.9819 4.01786 13.1341 3.66667 12.25 3.66667C11.3659 3.66667 10.5181 4.01786 9.89298 4.64298C9.26786 5.2681 8.91667 6.11594 8.91667 7C8.91667 7.88405 9.26786 8.7319 9.89298 9.35702C10.5181 9.98214 11.3659 10.3333 12.25 10.3333V10.3333ZM17.25 7C17.25 8.32608 16.7232 9.59785 15.7855 10.5355C14.8479 11.4732 13.5761 12 12.25 12C10.9239 12 9.65215 11.4732 8.71447 10.5355C7.77678 9.59785 7.25 8.32608 7.25 7C7.25 5.67392 7.77678 4.40215 8.71447 3.46447C9.65215 2.52678 10.9239 2 12.25 2C13.5761 2 14.8479 2.52678 15.7855 3.46447C16.7232 4.40215 17.25 5.67392 17.25 7V7Z" fill="#5D6664"/>
</svg>
