<svg width="24" height="24" viewBox="0 0 24 24" fill="none" xmlns="http://www.w3.org/2000/svg">
<path fill-rule="evenodd" clip-rule="evenodd" d="M19.5 21C19.5 21 21 21 21 19.5C21 18 19.5 13.5 12 13.5C4.5 13.5 3 18 3 19.5C3 21 4.5 21 4.5 21H19.5ZM4.5075 19.584V19.581V19.584ZM4.533 19.5H19.467C19.474 19.4992 19.481 19.4982 19.488 19.497L19.5 19.494C19.4985 19.125 19.269 18.015 18.252 16.998C17.274 16.02 15.4335 15 12 15C8.565 15 6.726 16.02 5.748 16.998C4.731 18.015 4.503 19.125 4.5 19.494C4.51098 19.4961 4.52198 19.4981 4.533 19.5V19.5ZM19.494 19.584V19.581V19.584ZM12 10.5C12.7956 10.5 13.5587 10.1839 14.1213 9.62132C14.6839 9.05871 15 8.29565 15 7.5C15 6.70435 14.6839 5.94129 14.1213 5.37868C13.5587 4.81607 12.7956 4.5 12 4.5C11.2044 4.5 10.4413 4.81607 9.87868 5.37868C9.31607 5.94129 9 6.70435 9 7.5C9 8.29565 9.31607 9.05871 9.87868 9.62132C10.4413 10.1839 11.2044 10.5 12 10.5V10.5ZM16.5 7.5C16.5 8.69347 16.0259 9.83807 15.182 10.682C14.3381 11.5259 13.1935 12 12 12C10.8065 12 9.66193 11.5259 8.81802 10.682C7.97411 9.83807 7.5 8.69347 7.5 7.5C7.5 6.30653 7.97411 5.16193 8.81802 4.31802C9.66193 3.47411 10.8065 3 12 3C13.1935 3 14.3381 3.47411 15.182 4.31802C16.0259 5.16193 16.5 6.30653 16.5 7.5V7.5Z" fill="#5D6664"/>
</svg>
