<svg width="25" height="24" viewBox="0 0 25 24" fill="none" xmlns="http://www.w3.org/2000/svg">
<path fill-rule="evenodd" clip-rule="evenodd" d="M3.91667 22C3.91667 22 2.25 22 2.25 20.3333C2.25 18.6667 3.91667 13.6667 12.25 13.6667C20.5833 13.6667 22.25 18.6667 22.25 20.3333C22.25 22 20.5833 22 20.5833 22H3.91667ZM12.25 12C13.5761 12 14.8479 11.4732 15.7855 10.5355C16.7232 9.59785 17.25 8.32608 17.25 7C17.25 5.67392 16.7232 4.40215 15.7855 3.46447C14.8479 2.52678 13.5761 2 12.25 2C10.9239 2 9.65215 2.52678 8.71447 3.46447C7.77678 4.40215 7.25 5.67392 7.25 7C7.25 8.32608 7.77678 9.59785 8.71447 10.5355C9.65215 11.4732 10.9239 12 12.25 12V12Z" fill="#7BC5BC"/>
</svg>
