<svg width="24" height="24" viewBox="0 0 24 24" fill="none" xmlns="http://www.w3.org/2000/svg">
<path d="M20.3357 8.5466C20.2296 7.48261 19.9177 6.45062 19.4184 5.50984C18.9192 4.56905 18.2415 3.73826 17.4256 3.06547C14.7658 0.843498 11.6927 0.404704 8.54026 1.79549C6.93242 2.51588 5.59131 3.73906 4.71177 5.28744C3.83184 6.83622 3.45944 8.62979 3.6476 10.4082C3.76859 11.8194 4.25098 13.1729 5.04685 14.3349C6.29054 16.1269 7.53698 17.9189 8.78657 19.7108L10.8544 22.6832C11.0386 22.9796 11.305 23.2132 11.62 23.3552L11.7277 23.4H12.2776L12.3723 23.3572C12.7113 23.2072 12.9953 22.9524 13.1839 22.6292C15.0537 19.9412 16.9244 17.2533 18.7958 14.5653C20.0477 12.8341 20.5989 10.6798 20.3357 8.5466ZM11.9999 11.7142C10.856 11.7142 9.92852 10.7698 9.92852 9.60498C9.92852 8.4402 10.856 7.49581 11.9999 7.49581C13.1438 7.49581 14.0713 8.4402 14.0713 9.60498C14.0717 10.7698 13.1442 11.7142 11.9999 11.7142Z" fill="#7BC5BC"/>
</svg>
