<svg width="24" height="24" viewBox="0 0 24 24" fill="none" xmlns="http://www.w3.org/2000/svg">
<path d="M12.2779 23.4H11.7279L11.6203 23.3552C11.3053 23.2132 11.0389 22.9796 10.8547 22.6832L8.78679 19.7108C7.53719 17.9189 6.29073 16.1269 5.04701 14.3349C4.25113 13.1733 3.76873 11.8194 3.64774 10.4082C3.45918 8.6298 3.83198 6.83622 4.71153 5.28744C5.59148 3.73906 6.93222 2.51588 8.54009 1.79549C11.6926 0.404703 14.7657 0.843498 17.4256 3.06547C18.2415 3.73866 18.9192 4.56945 19.4184 5.50984C19.9181 6.45062 20.2296 7.48261 20.3357 8.5466C20.5989 10.6798 20.0474 12.8341 18.7958 14.5653C16.9243 17.2533 15.0537 19.9412 13.1838 22.6292C12.9948 22.9528 12.7108 23.2072 12.3722 23.3572L12.2779 23.4ZM12.0076 22.1812C12.0831 22.1044 12.1498 22.0196 12.208 21.928C14.0779 19.2401 15.9485 16.5521 17.82 13.8641C18.894 12.3773 19.3662 10.5278 19.1399 8.69619C19.0519 7.78781 18.7883 6.90542 18.3645 6.10103C17.9406 5.29624 17.3643 4.58505 16.6698 4.00786C14.3446 2.06588 11.7708 1.69869 9.01856 2.91267C7.64247 3.53106 6.49539 4.57945 5.7439 5.90623C4.99241 7.23301 4.67539 8.76899 4.83881 10.2914C4.94056 11.4882 5.34753 12.6373 6.02006 13.6245C7.25788 15.4165 8.50435 17.2085 9.75984 19.0005C10.452 19.992 11.143 20.9852 11.832 21.9796C11.8819 22.054 11.9412 22.1216 12.0076 22.1812ZM11.9856 12.8205H11.9546C11.1147 12.7977 10.3169 12.4429 9.73038 11.8314C9.14349 11.2194 8.8139 10.399 8.81115 9.54378C8.82175 8.67939 9.16823 7.85461 9.77438 7.25021C10.3809 6.64582 11.1984 6.31063 12.0469 6.31823C12.886 6.33783 13.6846 6.69022 14.2731 7.30021C14.8612 7.9102 15.1927 8.72939 15.1971 9.58418C15.1896 10.4462 14.8478 11.2698 14.246 11.8762C13.6446 12.4821 12.8318 12.8217 11.9856 12.8205ZM12.0076 7.53421C11.4797 7.53341 10.9729 7.74501 10.5978 8.1234C10.2195 8.4986 10.0038 9.01259 9.99947 9.55058C9.99986 10.0846 10.2049 10.5978 10.571 10.9806C10.9372 11.3634 11.4353 11.5858 11.9597 11.6002C12.4944 11.6074 13.0098 11.3974 13.3924 11.0166C13.7746 10.6358 13.9922 10.1154 13.9969 9.57098C13.9942 9.03739 13.7872 8.5258 13.4199 8.145C13.0526 7.76421 12.5541 7.54461 12.03 7.53221H12.008L12.0076 7.53421Z" fill="#5D6664"/>
</svg>
