<svg width="24" height="24" viewBox="0 0 24 24" fill="none" xmlns="http://www.w3.org/2000/svg">
<path d="M20.7536 3.20338C20.5502 2.99993 20.1943 2.9492 19.94 3.05083L3.46543 9.30507C3.16034 9.45761 2.9569 9.76269 3.0078 10.0678C3.0078 10.3729 3.21125 10.627 3.51633 10.7289L10.7368 13.2204L13.33 20.4915C13.4317 20.7966 13.7368 21 14.0418 21C14.3978 21 14.7029 20.7458 14.8045 20.4407L21.0078 4.01717C21.0585 3.71191 20.9569 3.40682 20.7534 3.20338H20.7536ZM14.0417 19.5254L11.6011 12.7625C11.4994 12.5591 11.3469 12.3558 11.1434 12.3049L4.43159 10.0168L19.7874 4.22018L14.0417 19.5254ZM12.9232 11.0846C12.7198 10.8811 12.7198 10.576 12.9232 10.3728L15.4148 7.88119C15.6183 7.67775 15.9233 7.67775 16.1266 7.88119C16.3301 8.08464 16.3301 8.38973 16.1266 8.593L13.635 11.0846C13.5334 11.1862 13.3808 11.2371 13.279 11.2371C13.1774 11.2371 13.0249 11.1355 12.9232 11.0846H12.9232Z" fill="#5D6664"/>
</svg>
