<svg width="24" height="24" viewBox="0 0 24 24" fill="none" xmlns="http://www.w3.org/2000/svg">
<g clip-path="url(#clip0_187_1412)">
<path fill-rule="evenodd" clip-rule="evenodd" d="M13.2668 2.45027C12.8978 1.19777 11.1248 1.19777 10.7558 2.45027L10.6148 2.92877C10.4962 3.33069 10.2892 3.70099 10.0089 4.01256C9.72872 4.32412 9.38234 4.56904 8.99519 4.7294C8.60803 4.88975 8.18991 4.96147 7.77145 4.9393C7.35299 4.91713 6.94479 4.80164 6.57675 4.60127L6.13875 4.36127C4.99275 3.73877 3.73875 4.99127 4.36275 6.13877L4.60125 6.57677C4.80161 6.94482 4.91711 7.35302 4.93928 7.77148C4.96145 8.18994 4.88973 8.60806 4.72938 8.99521C4.56902 9.38236 4.32409 9.72874 4.01253 10.009C3.70097 10.2892 3.33067 10.4962 2.92875 10.6148L2.45025 10.7558C1.19775 11.1248 1.19775 12.8978 2.45025 13.2668L2.92875 13.4078C3.33088 13.5263 3.70138 13.7333 4.0131 14.0137C4.32482 14.294 4.56985 14.6405 4.73022 15.0279C4.8906 15.4152 4.96225 15.8336 4.93994 16.2522C4.91762 16.6708 4.8019 17.0792 4.60125 17.4473L4.36125 17.8838C3.73875 19.0298 4.99125 20.2838 6.13875 19.6598L6.57675 19.4213C6.94489 19.2209 7.35319 19.1055 7.77173 19.0834C8.19028 19.0613 8.60846 19.1332 8.99563 19.2937C9.3828 19.4542 9.72916 19.6993 10.0093 20.011C10.2895 20.3228 10.4963 20.6932 10.6148 21.0953L10.7558 21.5723C11.1248 22.8248 12.8978 22.8248 13.2668 21.5723L13.4078 21.0938C13.5263 20.6916 13.7333 20.3211 14.0136 20.0094C14.294 19.6977 14.6405 19.4527 15.0279 19.2923C15.4152 19.1319 15.8335 19.0603 16.2522 19.0826C16.6708 19.1049 17.0792 19.2206 17.4473 19.4213L17.8838 19.6613C19.0298 20.2838 20.2838 19.0313 19.6598 17.8838L19.4213 17.4473C19.2206 17.0791 19.105 16.6706 19.0827 16.2519C19.0605 15.8332 19.1323 15.4148 19.2928 15.0274C19.4534 14.6401 19.6986 14.2936 20.0104 14.0133C20.3223 13.733 20.693 13.5261 21.0953 13.4078L21.5723 13.2668C22.8248 12.8978 22.8248 11.1248 21.5723 10.7558L21.0938 10.6148C20.6918 10.4962 20.3215 10.2892 20.01 10.009C19.6984 9.72874 19.4535 9.38236 19.2931 8.99521C19.1328 8.60806 19.0611 8.18994 19.0832 7.77148C19.1054 7.35302 19.2209 6.94482 19.4213 6.57677L19.6613 6.13877C20.2838 4.99277 19.0313 3.73877 17.8838 4.36277L17.4473 4.60127C17.0791 4.8022 16.6706 4.91815 16.2518 4.94061C15.833 4.96308 15.4145 4.89149 15.0269 4.73109C14.6394 4.57069 14.2927 4.32557 14.0122 4.01369C13.7318 3.70182 13.5247 3.33111 13.4063 2.92877L13.2653 2.45027H13.2668ZM9.31725 2.02577C10.1078 -0.659226 13.9148 -0.659226 14.7053 2.02577L14.8463 2.50427C14.9015 2.6917 14.9979 2.8644 15.1285 3.00971C15.2591 3.15502 15.4206 3.26926 15.6011 3.34405C15.7816 3.41884 15.9766 3.45229 16.1717 3.44195C16.3668 3.43161 16.5572 3.37773 16.7288 3.28427L17.1668 3.04427C19.6268 1.70627 22.3178 4.39577 20.9768 6.85577L20.7383 7.29377C20.6448 7.46536 20.5909 7.65569 20.5806 7.85081C20.5702 8.04592 20.6037 8.24088 20.6785 8.42139C20.7533 8.60189 20.8675 8.76338 21.0128 8.894C21.1581 9.02462 21.3308 9.12107 21.5183 9.17627L21.9968 9.31727C24.6818 10.1078 24.6818 13.9148 21.9968 14.7053L21.5183 14.8463C21.3308 14.9015 21.1581 14.9979 21.0128 15.1286C20.8675 15.2592 20.7533 15.4207 20.6785 15.6012C20.6037 15.7817 20.5702 15.9766 20.5806 16.1717C20.5909 16.3669 20.6448 16.5572 20.7383 16.7288L20.9783 17.1668C22.3178 19.6268 19.6253 22.3178 17.1668 20.9768L16.7288 20.7383C16.5572 20.6448 16.3668 20.5909 16.1717 20.5806C15.9766 20.5703 15.7816 20.6037 15.6011 20.6785C15.4206 20.7533 15.2591 20.8675 15.1285 21.0128C14.9979 21.1581 14.9015 21.3308 14.8463 21.5183L14.7053 21.9968C13.9148 24.6818 10.1078 24.6818 9.31725 21.9968L9.17625 21.5183C9.12105 21.3308 9.0246 21.1581 8.89398 21.0128C8.76336 20.8675 8.60187 20.7533 8.42136 20.6785C8.24086 20.6037 8.0459 20.5703 7.85078 20.5806C7.65567 20.5909 7.46534 20.6448 7.29375 20.7383L6.85575 20.9783C4.39575 22.3178 1.70625 19.6253 3.04575 17.1668L3.28425 16.7288C3.37771 16.5572 3.43158 16.3669 3.44193 16.1717C3.45227 15.9766 3.41882 15.7817 3.34403 15.6012C3.26924 15.4207 3.155 15.2592 3.00969 15.1286C2.86438 14.9979 2.69168 14.9015 2.50425 14.8463L2.02575 14.7053C-0.659249 13.9148 -0.659249 10.1078 2.02575 9.31727L2.50425 9.17627C2.69168 9.12107 2.86438 9.02462 3.00969 8.894C3.155 8.76338 3.26924 8.60189 3.34403 8.42139C3.41882 8.24088 3.45227 8.04592 3.44193 7.85081C3.43158 7.65569 3.37771 7.46536 3.28425 7.29377L3.04425 6.85577C1.70625 4.39577 4.39725 1.70627 6.85575 3.04577L7.29375 3.28427C7.46534 3.37773 7.65567 3.43161 7.85078 3.44195C8.0459 3.45229 8.24086 3.41884 8.42136 3.34405C8.60187 3.26926 8.76336 3.15502 8.89398 3.00971C9.0246 2.8644 9.12105 2.6917 9.17625 2.50427L9.31725 2.02577Z" fill="#E2FFFA"/>
<path fill-rule="evenodd" clip-rule="evenodd" d="M12 8.63098C11.1065 8.63098 10.2496 8.98593 9.61775 9.61774C8.98594 10.2495 8.631 11.1065 8.631 12C8.631 12.8935 8.98594 13.7504 9.61775 14.3822C10.2496 15.014 11.1065 15.369 12 15.369C12.8935 15.369 13.7504 15.014 14.3822 14.3822C15.014 13.7504 15.369 12.8935 15.369 12C15.369 11.1065 15.014 10.2495 14.3822 9.61774C13.7504 8.98593 12.8935 8.63098 12 8.63098ZM7.131 12C7.131 11.3606 7.25694 10.7274 7.50163 10.1367C7.74632 9.54596 8.10497 9.00921 8.55709 8.55708C9.00922 8.10495 9.54598 7.7463 10.1367 7.50161C10.7274 7.25692 11.3606 7.13098 12 7.13098C12.6394 7.13098 13.2725 7.25692 13.8633 7.50161C14.454 7.7463 14.9908 8.10495 15.4429 8.55708C15.895 9.00921 16.2537 9.54596 16.4984 10.1367C16.7431 10.7274 16.869 11.3606 16.869 12C16.869 13.2913 16.356 14.5298 15.4429 15.4429C14.5298 16.356 13.2913 16.869 12 16.869C10.7087 16.869 9.47021 16.356 8.55709 15.4429C7.64398 14.5298 7.131 13.2913 7.131 12Z" fill="#E2FFFA"/>
</g>
<defs>
<clipPath id="clip0_187_1412">
<rect width="24" height="24" fill="white"/>
</clipPath>
</defs>
</svg>
