<svg width="24" height="24" viewBox="0 0 24 24" fill="none" xmlns="http://www.w3.org/2000/svg">
<g clip-path="url(#clip0_360_4154)">
<path fill-rule="evenodd" clip-rule="evenodd" d="M13.2668 2.45021C12.8978 1.19771 11.1248 1.19771 10.7558 2.45021L10.6148 2.92871C10.4962 3.33063 10.2892 3.70093 10.009 4.01249C9.72874 4.32406 9.38236 4.56898 8.99521 4.72934C8.60806 4.88969 8.18994 4.96141 7.77148 4.93924C7.35302 4.91707 6.94482 4.80158 6.57677 4.60121L6.13877 4.36121C4.99277 3.73871 3.73877 4.99121 4.36277 6.13871L4.60127 6.57671C4.80164 6.94475 4.91713 7.35296 4.9393 7.77142C4.96147 8.18988 4.88975 8.608 4.7294 8.99515C4.56904 9.3823 4.32412 9.72868 4.01256 10.0089C3.70099 10.2891 3.33069 10.4961 2.92877 10.6147L2.45027 10.7557C1.19777 11.1247 1.19777 12.8977 2.45027 13.2667L2.92877 13.4077C3.3309 13.5262 3.70141 13.7333 4.01312 14.0136C4.32484 14.2939 4.56987 14.6405 4.73024 15.0278C4.89062 15.4152 4.96228 15.8335 4.93996 16.2521C4.91764 16.6708 4.80192 17.0791 4.60127 17.4472L4.36127 17.8837C3.73877 19.0297 4.99127 20.2837 6.13877 19.6597L6.57677 19.4212C6.94491 19.2209 7.35322 19.1054 7.77176 19.0834C8.1903 19.0613 8.60848 19.1331 8.99565 19.2936C9.38282 19.4541 9.72918 19.6992 10.0093 20.011C10.2895 20.3227 10.4964 20.6932 10.6148 21.0952L10.7558 21.5722C11.1248 22.8247 12.8978 22.8247 13.2668 21.5722L13.4078 21.0937C13.5263 20.6916 13.7333 20.3211 14.0137 20.0094C14.294 19.6976 14.6405 19.4526 15.0279 19.2922C15.4152 19.1319 15.8336 19.0602 16.2522 19.0825C16.6708 19.1048 17.0792 19.2206 17.4473 19.4212L17.8838 19.6612C19.0298 20.2837 20.2838 19.0312 19.6598 17.8837L19.4213 17.4472C19.2206 17.079 19.105 16.6706 19.0828 16.2519C19.0605 15.8331 19.1323 15.4148 19.2929 15.0274C19.4534 14.64 19.6986 14.2935 20.0105 14.0132C20.3224 13.733 20.693 13.5261 21.0953 13.4077L21.5723 13.2667C22.8248 12.8977 22.8248 11.1247 21.5723 10.7557L21.0938 10.6147C20.6919 10.4961 20.3216 10.2891 20.01 10.0089C19.6984 9.72868 19.4535 9.3823 19.2932 8.99515C19.1328 8.608 19.0611 8.18988 19.0832 7.77142C19.1054 7.35296 19.2209 6.94475 19.4213 6.57671L19.6613 6.13871C20.2838 4.99271 19.0313 3.73871 17.8838 4.36271L17.4473 4.60121C17.0791 4.80214 16.6706 4.91809 16.2518 4.94055C15.833 4.96302 15.4145 4.89142 15.0269 4.73103C14.6394 4.57063 14.2927 4.32551 14.0122 4.01363C13.7318 3.70176 13.5248 3.33105 13.4063 2.92871L13.2653 2.45021H13.2668ZM9.31727 2.02571C10.1078 -0.659287 13.9148 -0.659287 14.7053 2.02571L14.8463 2.50421C14.9015 2.69164 14.9979 2.86434 15.1286 3.00965C15.2592 3.15496 15.4207 3.2692 15.6012 3.34399C15.7817 3.41878 15.9766 3.45223 16.1717 3.44189C16.3669 3.43155 16.5572 3.37767 16.7288 3.28421L17.1668 3.04421C19.6268 1.70621 22.3178 4.39571 20.9768 6.85571L20.7383 7.29371C20.6448 7.4653 20.5909 7.65563 20.5806 7.85075C20.5703 8.04586 20.6037 8.24082 20.6785 8.42133C20.7533 8.60183 20.8675 8.76332 21.0128 8.89394C21.1581 9.02456 21.3308 9.12101 21.5183 9.17621L21.9968 9.31721C24.6818 10.1077 24.6818 13.9147 21.9968 14.7052L21.5183 14.8462C21.3308 14.9014 21.1581 14.9979 21.0128 15.1285C20.8675 15.2591 20.7533 15.4206 20.6785 15.6011C20.6037 15.7816 20.5703 15.9766 20.5806 16.1717C20.5909 16.3668 20.6448 16.5571 20.7383 16.7287L20.9783 17.1667C22.3178 19.6267 19.6253 22.3177 17.1668 20.9767L16.7288 20.7382C16.5572 20.6448 16.3669 20.5909 16.1717 20.5805C15.9766 20.5702 15.7817 20.6036 15.6012 20.6784C15.4207 20.7532 15.2592 20.8675 15.1286 21.0128C14.9979 21.1581 14.9015 21.3308 14.8463 21.5182L14.7053 21.9967C13.9148 24.6817 10.1078 24.6817 9.31727 21.9967L9.17627 21.5182C9.12107 21.3308 9.02462 21.1581 8.894 21.0128C8.76338 20.8675 8.60189 20.7532 8.42139 20.6784C8.24088 20.6036 8.04592 20.5702 7.85081 20.5805C7.65569 20.5909 7.46536 20.6448 7.29377 20.7382L6.85577 20.9782C4.39577 22.3177 1.70627 19.6252 3.04577 17.1667L3.28427 16.7287C3.37773 16.5571 3.43161 16.3668 3.44195 16.1717C3.45229 15.9766 3.41884 15.7816 3.34405 15.6011C3.26926 15.4206 3.15502 15.2591 3.00971 15.1285C2.8644 14.9979 2.6917 14.9014 2.50427 14.8462L2.02577 14.7052C-0.659226 13.9147 -0.659226 10.1077 2.02577 9.31721L2.50427 9.17621C2.6917 9.12101 2.8644 9.02456 3.00971 8.89394C3.15502 8.76332 3.26926 8.60183 3.34405 8.42133C3.41884 8.24082 3.45229 8.04586 3.44195 7.85075C3.43161 7.65563 3.37773 7.4653 3.28427 7.29371L3.04427 6.85571C1.70627 4.39571 4.39727 1.70621 6.85577 3.04571L7.29377 3.28421C7.46536 3.37767 7.65569 3.43155 7.85081 3.44189C8.04592 3.45223 8.24088 3.41878 8.42139 3.34399C8.60189 3.2692 8.76338 3.15496 8.894 3.00965C9.02462 2.86434 9.12107 2.69164 9.17627 2.50421L9.31727 2.02571V2.02571Z" fill="#5D6664"/>
<path fill-rule="evenodd" clip-rule="evenodd" d="M12 8.63098C11.1065 8.63098 10.2495 8.98593 9.61774 9.61774C8.98593 10.2495 8.63098 11.1065 8.63098 12C8.63098 12.8935 8.98593 13.7504 9.61774 14.3822C10.2495 15.014 11.1065 15.369 12 15.369C12.8935 15.369 13.7504 15.014 14.3822 14.3822C15.014 13.7504 15.369 12.8935 15.369 12C15.369 11.1065 15.014 10.2495 14.3822 9.61774C13.7504 8.98593 12.8935 8.63098 12 8.63098V8.63098ZM7.13098 12C7.13098 11.3606 7.25692 10.7274 7.50161 10.1367C7.7463 9.54596 8.10495 9.00921 8.55708 8.55708C9.00921 8.10495 9.54596 7.7463 10.1367 7.50161C10.7274 7.25692 11.3606 7.13098 12 7.13098C12.6394 7.13098 13.2725 7.25692 13.8633 7.50161C14.454 7.7463 14.9908 8.10495 15.4429 8.55708C15.895 9.00921 16.2537 9.54596 16.4984 10.1367C16.743 10.7274 16.869 11.3606 16.869 12C16.869 13.2913 16.356 14.5298 15.4429 15.4429C14.5298 16.356 13.2913 16.869 12 16.869C10.7086 16.869 9.47019 16.356 8.55708 15.4429C7.64396 14.5298 7.13098 13.2913 7.13098 12V12Z" fill="#5D6664"/>
</g>
<defs>
<clipPath id="clip0_360_4154">
<rect width="24" height="24" fill="white"/>
</clipPath>
</defs>
</svg>
