<svg width="24" height="24" viewBox="0 0 24 24" fill="none" xmlns="http://www.w3.org/2000/svg">
<path fill-rule="evenodd" clip-rule="evenodd" d="M4.017 17.841C4.1727 17.9973 4.292 18.186 4.36641 18.3937C4.44082 18.6014 4.46851 18.8229 4.4475 19.0425C4.34208 20.0589 4.14221 21.0632 3.8505 22.0425C5.943 21.558 7.221 20.997 7.8015 20.703C8.13076 20.5362 8.50993 20.4967 8.8665 20.592C9.88865 20.8645 10.9421 21.0017 12 21C17.994 21 22.5 16.7895 22.5 12C22.5 7.212 17.994 3 12 3C6.006 3 1.5 7.212 1.5 12C1.5 14.202 2.4255 16.245 4.017 17.841ZM3.2775 23.6985C2.9221 23.769 2.56555 23.8335 2.208 23.892C1.908 23.94 1.68 23.628 1.7985 23.349C1.93169 23.0349 2.05376 22.7162 2.1645 22.3935L2.169 22.3785C2.541 21.2985 2.844 20.0565 2.955 18.9C1.1145 17.055 0 14.64 0 12C0 6.201 5.373 1.5 12 1.5C18.627 1.5 24 6.201 24 12C24 17.799 18.627 22.5 12 22.5C10.8115 22.5016 9.62788 22.3473 8.4795 22.041C7.6995 22.4355 6.021 23.154 3.2775 23.6985V23.6985Z" fill="#7BC5BC"/>
<path d="M10.9892 10.2143C10.9891 9.97402 10.9123 9.73921 10.7685 9.5395C10.6247 9.3398 10.4204 9.18417 10.1813 9.09231C9.94227 9.00045 9.67925 8.97647 9.42552 9.02342C9.1718 9.07036 8.93876 9.18611 8.75588 9.35604C8.573 9.52596 8.44849 9.74243 8.3981 9.97806C8.34771 10.2137 8.3737 10.4579 8.47278 10.6798C8.57186 10.9017 8.73959 11.0914 8.95474 11.2248C9.1699 11.3582 9.42283 11.4294 9.68154 11.4293C10.0284 11.4289 10.3608 11.3007 10.606 11.0729C10.8512 10.8451 10.989 10.5363 10.9892 10.2143Z" fill="#7BC5BC"/>
<path d="M15.8482 10.2143C15.8482 9.97402 15.7768 9.73921 15.6433 9.5395C15.5098 9.3398 15.32 9.18417 15.0981 9.09231C14.8761 9.00045 14.6318 8.97647 14.3962 9.02342C14.1606 9.07036 13.9442 9.18611 13.7744 9.35604C13.6046 9.52596 13.489 9.74243 13.4422 9.97806C13.3954 10.2137 13.4195 10.4579 13.5116 10.6798C13.6036 10.9017 13.7593 11.0914 13.9591 11.2248C14.1589 11.3582 14.3937 11.4294 14.634 11.4293C14.956 11.4289 15.2648 11.3007 15.4924 11.0729C15.7201 10.8451 15.848 10.5363 15.8482 10.2143V10.2143Z" fill="#7BC5BC"/>
<path d="M8.50956 14.5286C9.21601 15.0796 10.5671 15.7273 12.1654 15.7273C13.2649 15.7273 14.4817 15.4197 15.6839 14.5626C15.9641 14.3574 16.1517 14.0508 16.206 13.7091C16.2603 13.3675 16.177 13.0183 15.974 12.7373C15.7711 12.4562 15.4649 12.266 15.1218 12.2078C14.7787 12.1496 14.4263 12.2281 14.1411 12.4262C12.1328 13.8578 10.3426 12.6086 10.1371 12.4548C9.8603 12.2403 9.50914 12.1439 9.16084 12.1867C8.81253 12.2295 8.49561 12.4081 8.27979 12.6832C8.06397 12.9582 7.96693 13.3072 8.01002 13.6534C8.05311 13.9995 8.2328 14.3145 8.50956 14.529V14.5286Z" fill="#7BC5BC"/>
</svg>
